<?xml version="1.0" standalone="no"?>
<!DOCTYPE svg PUBLIC "-//W3C//DTD SVG 20010904//EN"
 "http://www.w3.org/TR/2001/REC-SVG-20010904/DTD/svg10.dtd">
<svg version="1.0" xmlns="http://www.w3.org/2000/svg"
 width="1050.000000pt" height="1050.000000pt" viewBox="0 0 1050.000000 1050.000000"
 preserveAspectRatio="xMidYMid meet">
<metadata>
Created by potrace 1.11, written by Peter Selinger 2001-2013
</metadata>
<g transform="translate(0.000000,1050.000000) scale(0.100000,-0.100000)"
fill="#000000" stroke="none">
<path d="M4840 10359 c-208 -7 -463 -30 -545 -49 -22 -5 -83 -19 -135 -31
-263 -60 -455 -163 -554 -297 -44 -60 -86 -171 -86 -228 0 -24 -49 -220 -111
-446 -60 -222 -161 -590 -224 -818 -118 -430 -233 -850 -475 -1730 -78 -283
-180 -654 -226 -825 -47 -170 -89 -324 -95 -341 -10 -31 -11 -31 -122 -48
-166 -25 -351 -63 -447 -92 -165 -50 -243 -107 -290 -211 l-22 -48 2 -855 c1
-786 3 -856 18 -874 9 -10 63 -52 119 -93 l103 -76 0 -108 0 -109 -49 0 c-61
0 -97 -13 -134 -48 -60 -56 -57 -15 -57 -839 l0 -758 38 -31 c618 -509 1402
-872 2252 -1043 434 -87 789 -122 1250 -122 681 1 1269 90 1862 285 595 195
1046 435 1522 810 l126 99 0 739 c0 788 1 777 -48 832 -26 29 -92 56 -139 56
l-43 0 0 129 0 130 104 76 c58 42 107 83 110 90 10 28 8 1709 -3 1764 -33 163
-181 249 -513 296 -62 9 -127 18 -144 21 -29 4 -33 9 -53 77 -12 39 -28 90
-35 112 -8 22 -26 81 -41 130 -31 103 -65 214 -100 330 -14 44 -36 118 -51
165 -14 47 -43 139 -63 205 -43 135 -77 248 -116 380 -33 114 -54 180 -70 225
-7 19 -18 55 -25 80 -21 75 -82 275 -129 425 -10 33 -29 94 -41 135 -12 41
-32 107 -45 145 -13 39 -34 108 -48 155 -27 92 -70 231 -124 405 -46 149 -78
254 -107 350 -41 139 -106 349 -117 380 -6 17 -19 59 -29 95 -10 36 -27 94
-38 130 -12 36 -39 126 -62 200 -23 74 -52 167 -65 205 -13 39 -26 86 -30 105
-6 31 -34 83 -80 148 -30 42 -106 77 -235 108 -36 8 -74 17 -85 20 -157 39
-586 80 -864 83 -91 1 -167 3 -170 4 -3 2 -103 -1 -221 -4z"/>
</g>
</svg>
